simulation
nRows=30
nColumns=15
endheader
time  TH_x TH_y TH_z SC_y  SC_z  SC_x  AC_y  AC_z  AC_x  GH_y  GH_z  GH_yy  EL_x  PS_y
0.750000  0.000000  0.000000  0.000000  -13.232334  -2.048755  41.428571  61.260333  -27.234749  -14.479123  19.062077  52.251742  -24.895883  15.214951  126.277894
0.750449  0.000000  0.000000  0.000000  -23.107326  7.373094  41.428571  51.474621  -28.891702  -15.390442  26.644603  45.469625  -28.234849  21.902282  117.992663
0.750898  0.000000  0.000000  0.000000  -36.171054  -8.468194  41.428571  64.553119  -28.541118  -14.181120  18.449553  54.301485  -28.224588  18.420034  130.732526
0.751346  0.000000  0.000000  0.000000  -32.856219  0.988053  47.857143  57.057501  -18.178558  -26.037332  24.500329  44.521825  -23.412218  18.955020  124.956235
0.751795  0.000000  0.000000  0.000000  -15.913815  10.023490  47.857143  47.801496  -38.216258  -19.663930  32.622228  39.906829  -24.767129  26.595706  115.468773
0.752244  0.000000  0.000000  0.000000  -22.795298  2.327360  47.857143  49.754362  -41.789400  -17.842366  20.113636  39.674662  -24.254763  12.532953  127.259422
0.752693  0.000000  0.000000  0.000000  -30.407630  3.217782  47.857143  50.923737  -34.938076  -21.004703  20.358663  39.737235  -25.303697  25.254169  126.648501
0.753142  0.000000  0.000000  0.000000  -14.990046  6.962774  47.857143  59.319399  -22.551926  -16.477708  28.501676  51.306874  -24.698827  27.491647  129.444459
0.753591  0.000000  0.000000  0.000000  -22.064091  3.334150  47.857143  53.605421  -31.009122  -24.501190  15.684578  51.050515  -28.042935  24.324324  119.139324
0.754039  0.000000  0.000000  0.000000  -15.885307  3.530441  47.857143  48.005511  -35.871966  -23.146383  31.101516  46.880006  -13.899552  21.410544  129.547883
0.754488  0.000000  0.000000  0.000000  -32.856219  0.988053  54.285714  55.699919  -23.533826  -29.845125  24.500329  44.521825  -23.412218  18.955020  124.956235
0.754937  0.000000  0.000000  0.000000  -13.602463  7.965386  54.285714  51.986544  -36.679882  -25.091367  25.231022  51.578149  -18.083795  27.424433  116.453985
0.755386  0.000000  0.000000  0.000000  -18.457708  18.967398  54.285714  47.100411  -36.633318  -22.070144  26.314652  48.567072  -17.825746  27.388926  125.369742
0.755835  0.000000  0.000000  0.000000  -14.906577  7.259276  54.285714  50.944500  -40.092023  -24.189412  28.193401  49.193626  -26.986305  21.160709  129.179960
0.756284  0.000000  0.000000  0.000000  -25.066306  -8.340803  54.285714  54.521816  -44.441692  -29.786950  21.620417  50.751296  -22.091711  9.268800  127.700141
0.756732  0.000000  0.000000  0.000000  -25.035418  8.164979  54.285714  48.276721  -38.599695  -21.328778  31.135882  45.335746  -21.353059  24.057236  124.672992
0.757181  0.000000  0.000000  0.000000  -21.384263  13.493835  54.285714  49.893044  -29.230414  -25.892084  15.459072  50.307664  -32.841930  27.611733  115.379480
0.757630  0.000000  0.000000  0.000000  -25.968862  -1.785368  54.285714  54.675497  -39.306355  -22.977184  22.133880  47.988672  -29.876153  15.701614  120.110153
0.758079  0.000000  0.000000  0.000000  -24.822839  -0.464404  54.285714  49.164745  -44.097979  -28.656955  16.449412  53.477183  -28.798636  16.959724  120.099187
0.758528  0.000000  0.000000  0.000000  -32.856219  0.988053  60.714286  53.877126  -28.788654  -33.973606  24.500329  44.521825  -23.412218  18.955020  124.956235
0.758977  0.000000  0.000000  0.000000  -16.723922  10.086441  60.714286  54.137703  -29.798034  -24.482344  15.402263  40.205679  -23.211197  12.454726  115.916211
0.759425  0.000000  0.000000  0.000000  -16.673814  15.902355  60.714286  45.063512  -35.958213  -27.204393  15.511844  41.391270  -15.673497  19.708783  126.765538
0.759874  0.000000  0.000000  0.000000  -30.020963  -2.051904  60.714286  50.092872  -43.835798  -31.964435  21.243180  36.937899  -27.685455  12.886409  128.791072
0.760323  0.000000  0.000000  0.000000  -24.729910  11.756882  60.714286  51.424266  -32.361032  -25.008201  14.878559  42.836380  -27.851770  9.052351  122.582999
0.760772  0.000000  0.000000  0.000000  -48.519592  -0.960535  60.714286  50.628877  -46.310979  -27.712296  16.652073  50.890542  -16.196512  14.518222  134.235237
0.761221  0.000000  0.000000  0.000000  -28.795567  6.148312  60.714286  45.687799  -43.856488  -28.747534  32.757216  38.148778  -26.926574  9.192213  115.825352
0.761670  0.000000  0.000000  0.000000  -43.860071  3.946427  60.714286  46.749024  -44.612482  -33.164693  28.192360  41.852408  -18.092393  25.063216  122.723664
0.762118  0.000000  0.000000  0.000000  -32.856219  0.988053  67.142857  51.500930  -33.904735  -38.535015  24.500329  44.521825  -23.412218  18.955020  124.956235
0.762567  0.000000  0.000000  0.000000  -28.044055  -2.879426  67.142857  48.015369  -48.679039  -38.425824  14.770930  37.980991  -31.503698  18.603405  132.032211
0.763016  0.000000  0.000000  0.000000  -46.817925  2.064925  67.142857  44.244311  -50.233154  -33.197551  18.411017  37.545005  -26.338236  24.618729  120.929689
